<svg xmlns="http://www.w3.org/2000/svg" viewBox="0 0 280 520">
  <rect width="280" height="520" fill="#f8fbf7"/>
  <rect width="280" height="60" fill="#2d6a30"/>
  <text x="20" y="35" font-family="Arial" font-size="14" fill="white" font-weight="bold">Growth Journal</text>
  <rect x="20" y="80" width="240" height="80" rx="12" fill="white"/>
  <rect x="30" y="95" width="50" height="50" rx="8" fill="#dcfce7"/>
  <ellipse cx="55" cy="120" rx="18" ry="25" fill="#4ade80"/>
  <text x="95" y="115" font-family="Arial" font-size="14" fill="#1a1a1a" font-weight="bold">Your Plant</text>
  <text x="95" y="135" font-family="Arial" font-size="10" fill="#6b7280">45 days old</text>
  <rect x="20" y="175" width="110" height="90" rx="12" fill="white"/>
  <text x="75" y="210" font-family="Arial" font-size="20" fill="#4ade80" text-anchor="middle">+15cm</text>
  <text x="75" y="230" font-family="Arial" font-size="10" fill="#6b7280" text-anchor="middle">Height</text>
  <text x="75" y="250" font-family="Arial" font-size="14" text-anchor="middle">??</text>
  <rect x="150" y="175" width="110" height="90" rx="12" fill="white"/>
  <text x="205" y="210" font-family="Arial" font-size="20" fill="#4ade80" text-anchor="middle">12</text>
  <text x="205" y="230" font-family="Arial" font-size="10" fill="#6b7280" text-anchor="middle">Photos</text>
  <text x="205" y="250" font-family="Arial" font-size="14" text-anchor="middle">??</text>
  <text x="20" y="290" font-family="Arial" font-size="12" fill="#1a1a1a" font-weight="bold">Timeline</text>
  <rect x="20" y="305" width="240" height="180" rx="12" fill="white"/>
  <rect x="50" y="320" width="2" height="150" fill="#e5e7eb"/>
  <circle cx="51" cy="330" r="8" fill="#4ade80"/>
  <rect x="70" y="320" width="60" height="60" rx="8" fill="#f0fdf4"/>
  <rect x="75" y="325" width="50" height="50" rx="6" fill="#4ade80" opacity="0.3"/>
  <text x="140" y="340" font-family="Arial" font-size="10" fill="#374151">Today</text>
  <text x="140" y="355" font-family="Arial" font-size="9" fill="#6b7280">Plant growing well</text>
  <circle cx="51" cy="400" r="6" fill="#86efac"/>
  <rect x="70" y="390" width="50" height="50" rx="6" fill="#f0fdf4"/>
  <text x="130" y="410" font-family="Arial" font-size="9" fill="#6b7280">3 days ago</text>
  <circle cx="51" cy="455" r="6" fill="#bbf7d0"/>
  <rect x="70" y="445" width="50" height="50" rx="6" fill="#f0fdf4"/>
  <text x="130" y="465" font-family="Arial" font-size="9" fill="#6b7280">1 week ago</text>
  <rect x="200" y="460" width="50" height="50" rx="25" fill="#4ade80"/>
  <text x="225" y="493" font-family="Arial" font-size="24" fill="white" text-anchor="middle">+</text>
</svg>