<svg xmlns="http://www.w3.org/2000/svg" viewBox="0 0 280 520">
  <rect width="280" height="520" fill="#f8fbf7"/>
  <rect width="280" height="60" fill="#2d6a30"/>
  <text x="20" y="35" font-family="Arial" font-size="14" fill="white" font-weight="bold">My Plant Library</text>
  <text x="20" y="50" font-family="Arial" font-size="10" fill="rgba(255,255,255,0.7)">15 plants</text>
  <rect x="20" y="75" width="240" height="36" rx="18" fill="white"/>
  <text x="40" y="98" font-family="Arial" font-size="12" fill="#9ca3af">Search plants...</text>
  <text x="20" y="135" font-family="Arial" font-size="12" fill="#1a1a1a" font-weight="bold">All Plants</text>
  <rect x="20" y="150" width="75" height="100" rx="12" fill="white"/>
  <rect x="30" y="160" width="55" height="65" rx="8" fill="#dcfce7"/>
  <ellipse cx="57" cy="192" rx="18" ry="25" fill="#4ade80"/>
  <text x="57" y="235" font-family="Arial" font-size="9" fill="#374151" text-anchor="middle">Mai</text>
  <rect x="102" y="150" width="75" height="100" rx="12" fill="white"/>
  <rect x="112" y="160" width="55" height="65" rx="8" fill="#fce7f3"/>
  <ellipse cx="139" cy="192" rx="18" ry="25" fill="#f472b6"/>
  <text x="139" y="235" font-family="Arial" font-size="9" fill="#374151" text-anchor="middle">Orchid</text>
  <rect x="184" y="150" width="75" height="100" rx="12" fill="white"/>
  <rect x="194" y="160" width="55" height="65" rx="8" fill="#d1fae5"/>
  <ellipse cx="221" cy="192" rx="18" ry="25" fill="#34d399"/>
  <text x="221" y="235" font-family="Arial" font-size="9" fill="#374151" text-anchor="middle">Betel</text>
  <rect x="20" y="260" width="75" height="100" rx="12" fill="white"/>
  <rect x="30" y="270" width="55" height="65" rx="8" fill="#fef3c7"/>
  <ellipse cx="57" cy="302" rx="18" ry="25" fill="#fbbf24"/>
  <text x="57" y="345" font-family="Arial" font-size="9" fill="#374151" text-anchor="middle">Sunflower</text>
  <rect x="102" y="260" width="75" height="100" rx="12" fill="white"/>
  <rect x="112" y="270" width="55" height="65" rx="8" fill="#e0e7ff"/>
  <ellipse cx="139" cy="302" rx="18" ry="25" fill="#818cf8"/>
  <text x="139" y="345" font-family="Arial" font-size="9" fill="#374151" text-anchor="middle">Cactus</text>
  <rect x="184" y="260" width="75" height="100" rx="12" fill="white"/>
  <rect x="194" y="270" width="55" height="65" rx="8" fill="#ccfbf1"/>
  <ellipse cx="221" cy="302" rx="18" ry="25" fill="#2dd4bf"/>
  <text x="221" y="345" font-family="Arial" font-size="9" fill="#374151" text-anchor="middle">Palm</text>
  <text x="20" y="390" font-family="Arial" font-size="12" fill="#1a1a1a" font-weight="bold">Health Status</text>
  <rect x="20" y="405" width="240" height="50" rx="12" fill="white"/>
  <rect x="30" y="418" width="8" height="24" rx="4" fill="#4ade80"/>
  <text x="48" y="430" font-family="Arial" font-size="10" fill="#374151">Healthy</text>
  <text x="240" y="430" font-family="Arial" font-size="10" fill="#4ade80" text-anchor="end">12</text>
  <rect x="20" y="465" width="240" height="50" rx="12" fill="white"/>
  <rect x="30" y="478" width="8" height="24" rx="4" fill="#fbbf24"/>
  <text x="48" y="490" font-family="Arial" font-size="10" fill="#374151">Needs attention</text>
  <text x="240" y="490" font-family="Arial" font-size="10" fill="#fbbf24" text-anchor="end">3</text>
  <rect x="200" y="470" width="50" height="50" rx="25" fill="#4ade80"/>
  <text x="225" y="503" font-family="Arial" font-size="24" fill="white" text-anchor="middle">+</text>
</svg>