<svg xmlns="http://www.w3.org/2000/svg" viewBox="0 0 280 520">
  <rect width="280" height="520" fill="#f8fbf7"/>
  <rect width="280" height="60" fill="#64748b"/>
  <text x="20" y="35" font-family="Arial" font-size="14" fill="white" font-weight="bold">Inventory</text>
  <text x="20" y="50" font-family="Arial" font-size="10" fill="rgba(255,255,255,0.7)">8 items</text>
  <rect x="20" y="80" width="110" height="70" rx="12" fill="white"/>
  <text x="75" y="105" font-family="Arial" font-size="22" fill="#4ade80" text-anchor="middle">5</text>
  <text x="75" y="125" font-family="Arial" font-size="9" fill="#6b7280" text-anchor="middle">In stock</text>
  <rect x="140" y="80" width="120" height="70" rx="12" fill="white"/>
  <text x="200" y="105" font-family="Arial" font-size="22" fill="#fbbf24" text-anchor="middle">2</text>
  <text x="200" y="125" font-family="Arial" font-size="9" fill="#6b7280" text-anchor="middle">Running low</text>
  <text x="20" y="175" font-family="Arial" font-size="12" fill="#1a1a1a" font-weight="bold">Stock</text>
  <rect x="20" y="190" width="240" height="65" rx="12" fill="white"/>
  <rect x="30" y="205" width="40" height="40" rx="8" fill="#dcfce7"/>
  <ellipse cx="50" cy="225" rx="12" ry="15" fill="#4ade80"/>
  <text x="80" y="215" font-family="Arial" font-size="11" fill="#1a1a1a" font-weight="medium">Soil</text>
  <text x="80" y="232" font-family="Arial" font-size="9" fill="#6b7280">25kg</text>
  <rect x="210" y="208" width="40" height="18" rx="9" fill="#dcfce7"/>
  <text x="230" y="221" font-family="Arial" font-size="9" fill="#4ade80" text-anchor="middle">In stock</text>
  <rect x="20" y="265" width="240" height="65" rx="12" fill="white"/>
  <rect x="30" y="280" width="40" height="40" rx="8" fill="#fef3c7"/>
  <rect x="40" y="290" width="20" height="20" rx="2" fill="#fbbf24"/>
  <text x="80" y="290" font-family="Arial" font-size="11" fill="#1a1a1a" font-weight="medium">NPK Fertilizer</text>
  <text x="80" y="307" font-family="Arial" font-size="9" fill="#6b7280">5kg</text>
  <rect x="200" y="283" width="50" height="18" rx="9" fill="#fef3c7"/>
  <text x="225" y="296" font-family="Arial" font-size="9" fill="#f59e0b" text-anchor="middle">Low stock</text>
  <rect x="20" y="340" width="240" height="65" rx="12" fill="white"/>
  <rect x="30" y="355" width="40" height="40" rx="8" fill="#dbeafe"/>
  <ellipse cx="50" cy="375" rx="15" ry="12" fill="#3b82f6"/>
  <text x="80" y="365" font-family="Arial" font-size="11" fill="#1a1a1a" font-weight="medium">Plastic pots</text>
  <text x="80" y="382" font-family="Arial" font-size="9" fill="#6b7280">20 pcs</text>
  <rect x="210" y="358" width="40" height="18" rx="9" fill="#dbeafe"/>
  <text x="230" y="371" font-family="Arial" font-size="9" fill="#3b82f6" text-anchor="middle">In stock</text>
  <rect x="20" y="415" width="240" height="65" rx="12" fill="white"/>
  <rect x="30" y="430" width="40" height="40" rx="8" fill="#fce7f3"/>
  <circle cx="50" cy="450" r="15" fill="#ec4899" opacity="0.5"/>
  <text x="80" y="440" font-family="Arial" font-size="11" fill="#1a1a1a" font-weight="medium">Organic compost</text>
  <text x="80" y="457" font-family="Arial" font-size="9" fill="#6b7280">10kg</text>
  <rect x="210" y="433" width="40" height="18" rx="9" fill="#dcfce7"/>
  <text x="230" y="446" font-family="Arial" font-size="9" fill="#4ade80" text-anchor="middle">In stock</text>
  <rect x="200" y="480" width="50" height="50" rx="25" fill="#64748b"/>
  <text x="225" y="513" font-family="Arial" font-size="24" fill="white" text-anchor="middle">+</text>
</svg>