<svg xmlns="http://www.w3.org/2000/svg" viewBox="0 0 200 200" fill="none">
  <g opacity="0.15">
    <path d="M100 10C70 25 50 55 40 85C30 115 45 165 75 175C105 185 140 165 160 135C180 105 175 65 145 40C115 15 90 10 70 25C80 18 90 14 100 10Z" fill="#2d5a27"/>
    <path d="M100 30C80 40 65 60 55 82C45 104 55 140 75 148C95 156 120 142 135 120C150 98 145 68 125 52C105 36 95 35 80 45C88 40 95 36 100 30Z" fill="#3d7a37"/>
    <path d="M100 50C88 58 78 72 72 88C66 104 72 128 85 134C98 140 115 130 125 115C135 100 130 78 115 68C100 58 96 58 85 66C91 63 96 57 100 50Z" fill="#4d9a47"/>
    <path d="M100 70C92 76 86 86 82 96C78 106 82 122 90 126C98 130 110 122 117 112C124 102 120 88 110 82C100 76 98 76 90 82C94 80 98 76 100 70Z" fill="#5da857"/>
  </g>
</svg>
